<svg width="36" height="36" viewBox="0 0 36 36" fill="none" xmlns="http://www.w3.org/2000/svg">
<rect width="36" height="36" rx="8" fill="#244875"/>
<g clip-path="url(#clip0_442_376)">
<path fill-rule="evenodd" clip-rule="evenodd" d="M14.6667 24C14.6667 23.2636 15.2636 22.6667 16 22.6667C16.7364 22.6667 17.3333 23.2636 17.3333 24C17.3333 24.7364 16.7364 25.3333 16 25.3333C15.2636 25.3333 14.6667 24.7364 14.6667 24Z" fill="white"/>
<path fill-rule="evenodd" clip-rule="evenodd" d="M22 24C22 23.2636 22.597 22.6667 23.3333 22.6667C24.0697 22.6667 24.6667 23.2636 24.6667 24C24.6667 24.7364 24.0697 25.3333 23.3333 25.3333C22.597 25.3333 22 24.7364 22 24Z" fill="white"/>
<path fill-rule="evenodd" clip-rule="evenodd" d="M10 10.6667C10 10.2985 10.2985 10 10.6667 10H13.3333C13.6511 10 13.9247 10.2243 13.987 10.5358L14.547 13.3333H25.3333C25.532 13.3333 25.7203 13.422 25.847 13.575C25.9736 13.7281 26.0254 13.9297 25.9882 14.1249L24.9206 19.7232C24.8291 20.1836 24.5787 20.5972 24.213 20.8915C23.8492 21.1844 23.3944 21.3406 22.9276 21.3333H16.4591C15.9923 21.3406 15.5375 21.1844 15.1737 20.8915C14.8082 20.5973 14.5578 20.1839 14.4662 19.7238L13.3525 14.1595C13.348 14.1411 13.3443 14.1224 13.3413 14.1034L12.7869 11.3333H10.6667C10.2985 11.3333 10 11.0349 10 10.6667ZM14.8138 14.6667L15.7739 19.4635C15.8044 19.6169 15.8879 19.7548 16.0097 19.8529C16.1316 19.951 16.2841 20.0031 16.4406 20.0001L16.4533 20H22.9333L22.9461 20.0001C23.1025 20.0031 23.255 19.951 23.3769 19.8529C23.4982 19.7552 23.5815 19.6182 23.6123 19.4656L24.5275 14.6667H14.8138Z" fill="white"/>
</g>
<defs>
<clipPath id="clip0_442_376">
<rect width="16" height="16" fill="white" transform="translate(10 10)"/>
</clipPath>
</defs>
</svg>
