<svg viewBox="0 0 16 15" fill="none" xmlns="http://www.w3.org/2000/svg">
<path fill-rule="evenodd" clip-rule="evenodd" d="M7.99989 0.666321C8.25363 0.666321 8.48538 0.810369 8.59769 1.0379L10.5027 4.8973L14.763 5.52C15.014 5.55669 15.2225 5.73269 15.3007 5.97403C15.379 6.21537 15.3135 6.48021 15.1317 6.65723L12.0496 9.65923L12.777 13.9003C12.8199 14.1504 12.717 14.4032 12.5117 14.5524C12.3064 14.7015 12.0342 14.7212 11.8096 14.603L7.99989 12.5996L4.19019 14.603C3.96558 14.7212 3.69338 14.7015 3.48806 14.5524C3.28275 14.4032 3.17992 14.1504 3.22281 13.9003L3.95021 9.65923L0.868065 6.65723C0.68632 6.48021 0.620805 6.21537 0.699056 5.97403C0.777308 5.73269 0.985762 5.55669 1.2368 5.52L5.49705 4.8973L7.40208 1.0379C7.5144 0.810369 7.74614 0.666321 7.99989 0.666321Z" fill="#FFD42C"/>
</svg>
